# xmcd CD database file
#
# Track frame offsets:
#	150
#	18890
#	34015
#	61897
#	76600
#	85005
#	96842
#	100577
#	119477
#	132887
#	142022
#	149070
#	162080
#	175390
#	187450
#	210925
#	228782
#	242650
#	256572
#	270362
#	285590
#	306225
#
# Disc length: 4234 seconds
#
# Revision: 0
# Processed by: cddbd v1.5.2PL0 Copyright (c) Steve Scherf et al.
# Submitted via: CDex 1.70beta2
#
DISCID=23108816
DTITLE=Herman, Woody - V Disc [CD1)
DYEAR=1997
DGENRE=Jazz
TTITLE0=125th street prophet
TTITLE1=A kiss goodnight
TTITLE2=Ah, your father's mustache
TTITLE3=Apple honey
TTITLE4=Bishops blues
TTITLE5=Bloop bleep
TTITLE6=Intro by Leonard Feather
TTITLE7=Blowing up a storm
TTITLE8=Jackson fiddles while Ralph burns
TTITLE9=C jam blues
TTITLE10=Blue flame
TTITLE11=By the river of the roses
TTITLE12=Caldonia
TTITLE13=Come back to Sorrento
TTITLE14=Dancing in the dawn
TTITLE15=Don't worry 'bout that mule
TTITLE16=Flying home
TTITLE17=Fur trappers' ball
TTITLE18=Golden wedding
TTITLE19=Goosey gander
TTITLE20=Happiness is jes' a thing called Joe
TTITLE21=Helen of Troy
EXTD=YEAR: 1997
EXTT0=
EXTT1=
EXTT2=
EXTT3=
EXTT4=
EXTT5=
EXTT6=
EXTT7=
EXTT8=
EXTT9=
EXTT10=
EXTT11=
EXTT12=
EXTT13=
EXTT14=
EXTT15=
EXTT16=
EXTT17=
EXTT18=
EXTT19=
EXTT20=
EXTT21=
PLAYORDER=
